<svg xmlns="http://www.w3.org/2000/svg" enable-background="new 0 0 24 24" viewBox="0 0 24 24"><path fill="#74D1C9" d="M4.323,16.187v0.001c0.895-0.735,2.087-1.47,3.876-3.526L5.814,10.9L0,13.102C1.64,14.276,3.13,15.306,4.323,16.187L4.323,16.187z"/><path fill="#65B6AF" d="M4.421,11.427L0,13.102c1.64,1.174,3.13,2.203,4.323,3.084v0.001c0.032-0.026,0.065-0.053,0.097-0.079V11.427L4.421,11.427z"/><path fill="#E97500" d="M5.813,16.626c0,0,0.596-0.146,1.193,0.148c1.193,0.441,1.789,2.056,2.236,3.23c0.298,0.881,0.745,1.615,1.043,2.496c1.194-0.293,1.939-0.733,2.684-1.469c0.745-0.735,1.49-1.615,2.236-2.35c1.342-1.616,2.981-3.672,5.068-2.644c0.298,0.148,0.745,0.441,0.895,0.587c0.447,0.294,0.745,0.588,1.193,1.028c0.745,0.587,1.043,1.027,1.64,1.322c-1.491-2.938-2.534-5.875-3.728-8.959l0.002,0.002c-0.447-1.175-0.745-2.349-1.193-3.524c-0.447-1.322-0.894-2.497-1.64-3.525C17.144,2.528,16.548,1.5,15.801,1.5c-0.149,0-0.298,0.146-0.447,0.146c-0.447,0.148-1.043,1.027-1.193,1.616c-0.447,0.733-1.342,1.909-1.938,2.643c-0.149,0.294-0.447,0.588-0.596,0.734c-0.447,0.294-0.894,0.734-1.491,1.027c-0.149,0-0.298,0.146-0.447,0.146c-0.447,0-0.745,0.294-1.043,0.441c-0.447,0.44-0.894,1.028-1.342,1.47c0,0.146-0.149,0.293-0.298,0.44l2.236,1.615c1.64-1.909,3.578-3.818,4.919-7.489c0,0-0.447,3.965-4.025,8.225C7.899,15.011,6.11,16.333,5.813,16.626L5.813,16.626z"/><path fill="#CB6600" d="M15.636,1.545c-0.094,0.043-0.188,0.101-0.282,0.101c-0.447,0.148-1.043,1.027-1.193,1.616c-0.447,0.733-1.342,1.909-1.938,2.643c-0.149,0.294-0.447,0.588-0.596,0.734c-0.447,0.294-0.894,0.734-1.491,1.027c-0.149,0-0.298,0.146-0.447,0.146c-0.447,0-0.745,0.294-1.043,0.441c-0.447,0.44-0.894,1.028-1.342,1.47c0,0.146-0.149,0.293-0.298,0.44l2.236,1.615c1.64-1.909,3.578-3.818,4.919-7.489c0,0-0.447,3.965-4.025,8.225c-2.236,2.496-4.025,3.818-4.323,4.111c0,0,0.148-0.036,0.371-0.036c0.224,0,0.523,0.037,0.822,0.184c1.193,0.441,1.789,2.056,2.236,3.23c0.298,0.881,0.745,1.615,1.043,2.496c1.194-0.293,1.939-0.733,2.684-1.469c0.745-0.735,1.49-1.615,2.236-2.35c0.141-0.169,0.285-0.344,0.432-0.519V1.545L15.636,1.545z"/></svg>